<svg role="presentation" viewBox="0 0 157 49" xmlns="http://www.w3.org/2000/svg"><g d="M 40.572 23.219 C 42.771 23.219 44.568 23.699 45.962 24.658 C 47.357 25.617 48.295 27.03 48.751 28.895 L 45.265 28.895 C 44.889 27.909 44.353 27.163 43.602 26.657 C 42.851 26.15 41.832 25.91 40.572 25.91 C 39.499 25.91 38.533 26.15 37.728 26.683 C 36.897 27.19 36.254 27.936 35.771 28.948 C 35.288 29.961 35.074 31.16 35.074 32.599 C 35.074 34.758 35.556 36.41 36.576 37.556 C 37.568 38.728 38.962 39.288 40.759 39.288 C 42.261 39.288 43.468 38.888 44.38 38.035 C 45.292 37.183 45.774 36.037 45.882 34.544 L 39.579 34.544 L 39.579 31.906 L 49.154 31.906 L 49.126 41.633 L 46.203 41.633 L 46.203 38.142 C 45.828 39.288 45.157 40.22 44.192 40.913 C 43.227 41.606 41.993 41.953 40.491 41.953 C 38.721 41.953 37.192 41.553 35.878 40.78 C 34.537 40.007 33.518 38.915 32.821 37.529 C 32.097 36.117 31.748 34.465 31.748 32.599 C 31.748 30.707 32.123 29.055 32.874 27.643 C 33.625 26.203 34.645 25.111 35.985 24.365 C 37.326 23.592 38.855 23.219 40.572 23.219 Z M 19.946 27.382 C 21.287 27.382 22.467 27.702 23.513 28.288 C 24.532 28.874 25.364 29.727 25.953 30.82 C 26.544 31.912 26.838 33.165 26.838 34.604 C 26.838 36.043 26.544 37.322 25.953 38.388 C 25.364 39.481 24.559 40.333 23.513 40.919 C 22.467 41.506 21.287 41.799 19.973 41.799 C 18.632 41.799 17.425 41.506 16.379 40.919 C 15.333 40.333 14.529 39.507 13.938 38.414 C 13.349 37.349 13.054 36.069 13.054 34.631 C 13.054 33.192 13.349 31.912 13.938 30.82 C 14.529 29.727 15.333 28.874 16.379 28.288 C 17.398 27.702 18.605 27.382 19.946 27.382 Z M 19.946 29.994 C 18.82 29.994 17.908 30.42 17.237 31.273 C 16.567 32.125 16.245 33.245 16.245 34.657 C 16.245 36.016 16.567 37.109 17.264 37.935 C 17.935 38.788 18.82 39.188 19.946 39.188 C 21.045 39.188 21.931 38.788 22.601 37.935 C 23.271 37.082 23.62 35.989 23.62 34.604 C 23.62 33.218 23.271 32.125 22.601 31.273 C 21.931 30.42 21.045 29.994 19.946 29.994 Z M 57.11 27.382 C 58.961 27.382 60.409 27.809 61.428 28.635 C 62.447 29.461 62.983 30.713 62.983 32.365 L 62.983 41.479 L 60.087 41.479 L 60.087 39.694 C 59.014 41.106 57.539 41.799 55.635 41.799 C 54.67 41.799 53.811 41.639 53.06 41.266 C 52.31 40.919 51.719 40.44 51.29 39.8 C 50.861 39.188 50.674 38.494 50.674 37.695 C 50.674 36.496 51.049 35.537 51.854 34.79 C 52.658 34.071 53.865 33.618 55.528 33.431 L 59.819 33.005 L 59.819 32.205 C 59.819 31.406 59.578 30.793 59.095 30.367 C 58.612 29.967 57.968 29.754 57.11 29.754 C 56.252 29.754 55.581 29.941 55.099 30.287 C 54.616 30.66 54.294 31.193 54.187 31.939 L 50.968 31.939 C 51.156 30.447 51.773 29.327 52.846 28.555 C 53.892 27.782 55.313 27.382 57.11 27.382 Z M 56.252 35.43 C 55.447 35.537 54.884 35.75 54.509 36.123 C 54.133 36.496 53.945 36.975 53.945 37.535 C 53.945 38.121 54.16 38.628 54.616 39.001 C 55.045 39.374 55.662 39.56 56.413 39.561 C 57.486 39.561 58.317 39.267 58.907 38.628 C 59.497 38.015 59.792 37.162 59.792 36.096 L 59.792 34.977 Z M 14.884 26.148 L 9.118 26.148 L 9.118 41.497 L 5.793 41.497 L 5.793 26.148 L 0 26.148 L 0 23.403 L 14.884 23.403 Z M 68.014 41.497 L 64.823 41.497 L 64.823 27.72 L 68.014 27.72 Z M 78.004 27.401 C 79.533 27.401 80.767 27.88 81.705 28.813 C 82.617 29.746 83.1 31.104 83.1 32.89 L 83.1 41.497 L 79.908 41.497 L 79.908 33.583 C 79.908 32.41 79.64 31.558 79.157 30.972 C 78.648 30.385 77.951 30.092 77.039 30.092 C 76.127 30.092 75.376 30.412 74.813 30.998 C 74.25 31.611 73.981 32.49 73.981 33.61 L 73.981 41.497 L 70.79 41.497 L 70.79 27.72 L 73.713 27.72 L 73.713 29.639 C 74.598 28.147 76.02 27.401 78.004 27.401 Z M 66.432 21.778 C 66.968 21.778 67.451 21.964 67.826 22.337 C 68.201 22.71 68.389 23.164 68.389 23.696 C 68.389 24.229 68.201 24.682 67.826 25.055 C 67.451 25.428 66.968 25.615 66.432 25.615 C 65.842 25.615 65.386 25.428 65.01 25.055 C 64.635 24.682 64.447 24.229 64.447 23.696 C 64.447 23.163 64.635 22.71 65.01 22.337 C 65.386 21.964 65.842 21.778 66.432 21.778 Z M 112.854 5.605 C 113.874 5.605 114.759 5.818 115.563 6.244 C 116.341 6.67 116.985 7.257 117.467 8.056 L 117.467 5.924 L 120.417 5.924 L 120.417 19.035 C 120.417 20.821 119.854 22.26 118.755 23.379 C 117.628 24.498 115.939 25.058 113.686 25.058 C 111.379 25.058 109.717 24.605 108.671 23.752 C 107.625 22.872 107.035 21.673 106.901 20.154 L 110.253 20.154 C 110.387 21.833 111.514 22.66 113.659 22.66 C 114.785 22.66 115.67 22.366 116.287 21.78 C 116.904 21.194 117.226 20.314 117.226 19.169 L 117.226 16.85 C 116.287 18.342 114.839 19.062 112.854 19.062 C 111.701 19.062 110.655 18.796 109.717 18.236 C 108.778 17.703 108.027 16.903 107.49 15.891 C 106.954 14.878 106.686 13.679 106.686 12.346 C 106.686 11.014 106.954 9.815 107.49 8.802 C 108.027 7.79 108.778 6.99 109.717 6.431 C 110.671 5.885 111.753 5.6 112.854 5.605 Z M 113.579 8.216 C 112.479 8.216 111.594 8.589 110.897 9.335 C 110.2 10.082 109.878 11.094 109.878 12.346 C 109.878 13.599 110.226 14.612 110.923 15.358 C 111.621 16.104 112.506 16.477 113.579 16.477 C 114.625 16.477 115.483 16.104 116.18 15.331 C 116.877 14.559 117.226 13.572 117.226 12.346 C 117.226 11.094 116.877 10.082 116.18 9.335 C 115.483 8.589 114.625 8.216 113.579 8.216 Z M 68.169 5.972 L 71.12 5.972 L 71.12 8.611 L 68.169 8.611 L 68.169 15.193 C 68.169 16.525 68.76 17.191 69.993 17.191 C 70.449 17.191 70.825 17.164 71.12 17.111 L 71.12 19.723 C 70.529 19.856 69.912 19.909 69.269 19.909 C 67.821 19.909 66.748 19.536 66.051 18.737 C 65.327 17.964 64.978 16.845 64.978 15.379 L 64.978 8.611 L 62.752 8.611 L 62.752 6.971 L 54.931 24.759 L 51.552 24.759 L 54.421 18.524 L 49.41 6.497 L 49.41 8.77 C 49.25 8.744 48.981 8.744 48.606 8.744 C 46.353 8.744 45.254 9.81 45.254 11.968 L 45.254 19.776 L 42.062 19.776 L 42.062 5.999 L 44.985 5.999 L 44.985 8.264 C 45.307 7.491 45.763 6.905 46.38 6.479 C 46.97 6.053 47.694 5.839 48.499 5.839 C 48.82 5.839 49.142 5.892 49.41 5.946 L 49.41 5.972 L 52.571 5.972 L 56.111 15.326 L 59.946 5.972 L 64.978 5.972 L 64.978 2.082 L 68.169 2.082 Z M 33.833 5.605 C 35.898 5.605 37.507 6.271 38.687 7.576 C 39.84 8.882 40.43 10.641 40.43 12.88 C 40.43 13.093 40.403 13.306 40.403 13.466 L 40.403 13.786 L 30.239 13.786 C 30.347 15.065 30.749 15.997 31.392 16.637 C 32.036 17.25 32.894 17.57 33.94 17.57 C 34.744 17.57 35.388 17.383 35.898 17.063 C 36.381 16.744 36.729 16.29 36.944 15.704 L 40.162 15.704 C 39.84 16.983 39.143 18.023 38.07 18.822 C 36.997 19.621 35.63 20.048 33.967 20.048 C 32.519 20.048 31.285 19.728 30.266 19.142 C 29.22 18.556 28.415 17.729 27.879 16.664 C 27.343 15.598 27.074 14.345 27.074 12.959 C 27.074 11.494 27.343 10.215 27.933 9.095 C 28.496 7.976 29.3 7.124 30.319 6.511 C 31.339 5.925 32.492 5.605 33.833 5.605 Z M 33.833 8.083 C 32.894 8.083 32.116 8.376 31.499 8.989 C 30.883 9.575 30.48 10.455 30.319 11.627 L 37.158 11.627 C 37.078 10.455 36.756 9.575 36.166 8.989 C 35.576 8.376 34.798 8.083 33.833 8.083 Z M 13.061 4.317 L 3.326 4.317 L 3.326 9.141 L 12.498 9.141 L 12.498 11.805 L 3.326 11.805 L 3.326 17.028 L 13.168 17.028 L 13.168 19.719 L 0 19.719 L 0 1.626 L 13.061 1.626 Z M 20.354 16.442 L 23.921 5.942 L 27.22 5.942 L 22.124 19.72 L 18.557 19.72 L 13.327 5.942 L 16.653 5.942 Z M 75.785 7.835 C 76.187 7.115 76.724 6.555 77.421 6.182 C 78.091 5.809 78.869 5.623 79.781 5.623 C 81.31 5.623 82.543 6.103 83.482 7.062 C 84.42 8.021 84.903 9.38 84.903 11.139 L 84.903 19.72 L 81.739 19.72 L 81.739 11.699 C 81.739 10.606 81.47 9.78 80.934 9.194 C 80.398 8.634 79.673 8.341 78.815 8.341 C 77.903 8.341 77.179 8.661 76.616 9.247 C 76.053 9.86 75.785 10.713 75.785 11.832 L 75.785 19.72 L 72.593 19.72 L 72.593 0.533 L 75.785 0.533 L 75.785 7.835 Z M 89.985 19.72 L 86.793 19.72 L 86.793 5.942 L 89.985 5.942 Z M 99.975 5.623 C 101.504 5.623 102.738 6.103 103.676 7.035 C 104.588 7.968 105.071 9.327 105.071 11.112 L 105.071 19.72 L 101.879 19.72 L 101.879 11.805 C 101.879 10.633 101.611 9.78 101.129 9.194 C 100.619 8.608 99.922 8.314 99.01 8.314 C 98.098 8.314 97.347 8.634 96.784 9.22 C 96.221 9.833 95.953 10.713 95.953 11.832 L 95.953 19.72 L 92.761 19.72 L 92.761 5.942 L 95.684 5.942 L 95.684 7.861 C 96.569 6.369 97.991 5.623 99.975 5.623 Z M 88.402 0 C 88.939 0 89.422 0.186 89.797 0.559 C 90.173 0.933 90.36 1.386 90.36 1.919 C 90.36 2.452 90.173 2.905 89.797 3.278 C 89.422 3.651 88.939 3.837 88.402 3.837 C 87.813 3.837 87.356 3.651 86.981 3.278 C 86.605 2.905 86.418 2.451 86.418 1.919 C 86.418 1.386 86.605 0.933 86.981 0.559 C 87.356 0.186 87.813 0 88.402 0 Z M 85.897 38.916 C 85.897 37.322 87.197 36.029 88.802 36.029 C 90.407 36.029 91.707 37.322 91.707 38.916 C 91.707 40.511 90.407 41.803 88.802 41.803 C 87.197 41.803 85.897 40.511 85.897 38.916 Z" fill="transparent" height="41.952644989412605px" id="aLo3HPgRQ" transform="translate(35.616 7.046)" width="120.41718200280059px"><path d="M 8.824 0 C 11.023 0 12.82 0.48 14.214 1.439 C 15.609 2.398 16.547 3.811 17.003 5.676 L 13.517 5.676 C 13.141 4.69 12.605 3.944 11.854 3.438 C 11.103 2.931 10.084 2.691 8.824 2.691 C 7.751 2.691 6.785 2.931 5.981 3.464 C 5.149 3.971 4.506 4.717 4.023 5.729 C 3.54 6.742 3.326 7.941 3.326 9.38 C 3.326 11.539 3.808 13.191 4.828 14.337 C 5.82 15.509 7.214 16.069 9.011 16.069 C 10.513 16.069 11.72 15.669 12.632 14.816 C 13.544 13.964 14.026 12.818 14.134 11.325 L 7.831 11.325 L 7.831 8.687 L 17.406 8.687 L 17.379 18.414 L 14.455 18.414 L 14.455 14.923 C 14.08 16.069 13.41 17.001 12.444 17.694 C 11.479 18.387 10.245 18.734 8.743 18.734 C 6.973 18.734 5.445 18.334 4.13 17.561 C 2.789 16.788 1.77 15.696 1.073 14.31 C 0.349 12.898 0 11.246 0 9.38 C 0 7.488 0.375 5.836 1.126 4.424 C 1.877 2.985 2.897 1.892 4.237 1.146 C 5.578 0.373 7.107 0 8.824 0 Z" fill="#111111" height="18.733692810457526px" id="SAKbaUOzL" transform="translate(31.748 23.219)" width="17.40560330578512px"/><path d="M 6.892 0 C 8.233 0 9.413 0.32 10.459 0.906 C 11.478 1.492 12.31 2.345 12.9 3.437 C 13.49 4.53 13.785 5.783 13.785 7.222 C 13.785 8.661 13.49 9.94 12.9 11.005 C 12.31 12.098 11.505 12.951 10.459 13.537 C 9.413 14.124 8.233 14.417 6.919 14.417 C 5.578 14.417 4.371 14.124 3.325 13.537 C 2.279 12.951 1.475 12.125 0.885 11.032 C 0.295 9.966 0 8.687 0 7.248 C 0 5.809 0.295 4.53 0.885 3.437 C 1.475 2.345 2.279 1.492 3.325 0.906 C 4.344 0.32 5.551 0 6.892 0 Z M 6.892 2.611 C 5.766 2.611 4.854 3.038 4.184 3.891 C 3.513 4.743 3.191 5.862 3.191 7.275 C 3.191 8.634 3.513 9.726 4.21 10.553 C 4.881 11.405 5.766 11.805 6.892 11.805 C 7.992 11.805 8.877 11.405 9.547 10.553 C 10.218 9.7 10.566 8.607 10.566 7.222 C 10.566 5.836 10.218 4.743 9.547 3.891 C 8.877 3.038 7.992 2.611 6.892 2.611 Z M 44.056 0 C 45.907 0 47.355 0.426 48.374 1.252 C 49.393 2.078 49.93 3.331 49.93 4.983 L 49.93 14.097 L 47.033 14.097 L 47.033 12.311 C 45.961 13.724 44.485 14.417 42.582 14.417 C 41.616 14.417 40.758 14.256 40.007 13.884 C 39.256 13.537 38.666 13.057 38.237 12.418 C 37.807 11.805 37.62 11.112 37.62 10.313 C 37.62 9.113 37.995 8.154 38.8 7.408 C 39.605 6.689 40.811 6.235 42.474 6.049 L 46.765 5.623 L 46.765 4.823 C 46.765 4.024 46.524 3.411 46.041 2.985 C 45.558 2.585 44.914 2.372 44.056 2.372 C 43.198 2.372 42.528 2.558 42.045 2.905 C 41.562 3.278 41.24 3.81 41.133 4.557 L 37.915 4.557 C 38.102 3.064 38.719 1.945 39.792 1.172 C 40.838 0.4 42.26 0 44.056 0 Z M 43.198 8.048 C 42.394 8.154 41.831 8.367 41.455 8.74 C 41.08 9.113 40.892 9.593 40.892 10.153 C 40.892 10.739 41.106 11.245 41.562 11.618 C 41.991 11.992 42.608 12.178 43.359 12.178 C 44.432 12.178 45.263 11.885 45.853 11.245 C 46.443 10.632 46.738 9.78 46.738 8.714 L 46.738 7.594 Z" fill="#111111" height="14.416568627451px" id="Zk7bY8Ca6" transform="translate(13.054 27.382)" width="49.929672155206845px"/><path d="M 14.884 4.37 L 9.118 4.37 L 9.118 19.719 L 5.793 19.719 L 5.793 4.37 L 0 4.37 L 0 1.626 L 14.884 1.626 Z M 68.014 19.719 L 64.823 19.719 L 64.823 5.942 L 68.014 5.942 Z M 78.004 5.623 C 79.533 5.623 80.767 6.102 81.705 7.035 C 82.617 7.968 83.1 9.327 83.1 11.112 L 83.1 19.719 L 79.908 19.719 L 79.908 11.805 C 79.908 10.633 79.64 9.78 79.157 9.194 C 78.648 8.607 77.951 8.314 77.039 8.314 C 76.127 8.314 75.376 8.634 74.813 9.22 C 74.25 9.833 73.981 10.712 73.981 11.832 L 73.981 19.719 L 70.79 19.719 L 70.79 5.942 L 73.713 5.942 L 73.713 7.861 C 74.598 6.369 76.02 5.623 78.004 5.623 Z M 66.432 0 C 66.968 0 67.451 0.186 67.826 0.559 C 68.201 0.933 68.389 1.386 68.389 1.919 C 68.389 2.452 68.201 2.904 67.826 3.278 C 67.451 3.651 66.968 3.837 66.432 3.837 C 65.842 3.837 65.386 3.651 65.01 3.278 C 64.635 2.904 64.447 2.451 64.447 1.919 C 64.447 1.385 64.635 0.932 65.01 0.559 C 65.386 0.186 65.842 0 66.432 0 Z" fill="#111111" height="19.719457841910568px" id="IAbVmbOIb" transform="translate(0 21.778)" width="83.09964937118662px"/><path d="M 6.168 0 C 7.188 0 8.073 0.213 8.877 0.64 C 9.655 1.066 10.299 1.652 10.781 2.452 L 10.781 0.32 L 13.731 0.32 L 13.731 13.431 C 13.731 15.216 13.168 16.655 12.069 17.774 C 10.942 18.894 9.253 19.453 7 19.453 C 4.693 19.453 3.031 19 1.985 18.147 C 0.939 17.268 0.349 16.069 0.215 14.55 L 3.567 14.55 C 3.701 16.229 4.828 17.055 6.973 17.055 C 8.099 17.055 8.985 16.762 9.601 16.176 C 10.218 15.589 10.54 14.71 10.54 13.564 L 10.54 11.245 C 9.601 12.738 8.153 13.457 6.168 13.457 C 5.015 13.457 3.969 13.191 3.031 12.631 C 2.092 12.098 1.341 11.299 0.804 10.286 C 0.268 9.274 0 8.074 0 6.742 C 0 5.41 0.268 4.21 0.804 3.198 C 1.341 2.185 2.092 1.386 3.031 0.826 C 3.985 0.28 5.067 -0.005 6.168 0 Z M 6.893 2.611 C 5.793 2.611 4.908 2.985 4.211 3.731 C 3.514 4.477 3.192 5.49 3.192 6.742 C 3.192 7.994 3.54 9.007 4.237 9.753 C 4.935 10.5 5.82 10.873 6.893 10.873 C 7.939 10.873 8.797 10.5 9.494 9.727 C 10.191 8.954 10.54 7.968 10.54 6.742 C 10.54 5.49 10.191 4.477 9.494 3.731 C 8.797 2.985 7.939 2.611 6.893 2.611 Z" fill="#111111" height="19.45306454565798px" id="j0IFrQz3V" transform="translate(106.686 5.605)" width="13.7312231404959px"/><path d="M 26.107 3.891 L 29.058 3.891 L 29.058 6.529 L 26.107 6.529 L 26.107 13.111 C 26.107 14.443 26.698 15.109 27.931 15.109 C 28.387 15.109 28.763 15.083 29.058 15.03 L 29.058 17.641 C 28.467 17.774 27.851 17.827 27.207 17.828 C 25.759 17.828 24.686 17.455 23.989 16.655 C 23.265 15.882 22.916 14.763 22.916 13.298 L 22.916 6.529 L 20.69 6.529 L 20.69 4.889 L 12.869 22.678 L 9.49 22.678 L 12.359 16.442 L 7.348 4.415 L 7.348 6.689 C 7.188 6.662 6.919 6.662 6.544 6.662 C 4.291 6.662 3.192 7.728 3.192 9.886 L 3.192 17.694 L 0 17.694 L 0 3.917 L 2.923 3.917 L 2.923 6.182 C 3.245 5.41 3.701 4.823 4.318 4.397 C 4.908 3.971 5.632 3.758 6.437 3.758 C 6.758 3.758 7.08 3.81 7.348 3.864 L 7.348 3.891 L 10.509 3.891 L 14.049 13.244 L 17.884 3.891 L 22.916 3.891 L 22.916 0 L 26.107 0 Z" fill="#111111" height="22.677712418300658px" id="U7KpePcUZ" transform="translate(42.062 2.082)" width="29.05757851239673px"/><path d="M 6.759 0 C 8.824 0 10.433 0.666 11.613 1.972 C 12.766 3.278 13.356 5.037 13.356 7.275 C 13.356 7.488 13.329 7.701 13.329 7.861 L 13.329 8.181 L 3.165 8.181 C 3.272 9.46 3.674 10.393 4.318 11.032 C 4.962 11.645 5.82 11.965 6.866 11.965 C 7.67 11.965 8.314 11.779 8.823 11.459 C 9.306 11.139 9.655 10.686 9.87 10.099 L 13.088 10.099 C 12.766 11.379 12.069 12.418 10.996 13.218 C 9.923 14.017 8.555 14.443 6.893 14.443 C 5.445 14.443 4.211 14.123 3.192 13.537 C 2.146 12.951 1.341 12.125 0.804 11.059 C 0.268 9.993 0 8.741 0 7.355 C 0 5.889 0.268 4.61 0.858 3.491 C 1.421 2.372 2.226 1.519 3.245 0.906 C 4.264 0.32 5.417 0 6.759 0 Z M 6.759 2.479 C 5.82 2.479 5.042 2.771 4.425 3.384 C 3.808 3.97 3.406 4.85 3.245 6.023 L 10.084 6.023 C 10.004 4.85 9.682 3.971 9.092 3.384 C 8.502 2.771 7.724 2.479 6.759 2.479 Z" fill="#111111" height="14.4434705882353px" id="rvFtU1If7" transform="translate(27.074 5.605)" width="13.355727367306542px"/><path d="M 13.061 4.317 L 3.326 4.317 L 3.326 9.141 L 12.498 9.141 L 12.498 11.805 L 3.326 11.805 L 3.326 17.028 L 13.168 17.028 L 13.168 19.719 L 0 19.719 L 0 1.626 L 13.061 1.626 Z M 20.354 16.442 L 23.921 5.942 L 27.22 5.942 L 22.124 19.72 L 18.557 19.72 L 13.327 5.942 L 16.653 5.942 Z M 75.785 7.835 C 76.187 7.115 76.724 6.555 77.421 6.182 C 78.091 5.809 78.869 5.623 79.781 5.623 C 81.31 5.623 82.543 6.103 83.482 7.062 C 84.42 8.021 84.903 9.38 84.903 11.139 L 84.903 19.72 L 81.739 19.72 L 81.739 11.699 C 81.739 10.606 81.47 9.78 80.934 9.194 C 80.398 8.634 79.673 8.341 78.815 8.341 C 77.903 8.341 77.179 8.661 76.616 9.247 C 76.053 9.86 75.785 10.713 75.785 11.832 L 75.785 19.72 L 72.593 19.72 L 72.593 0.533 L 75.785 0.533 L 75.785 7.835 Z M 89.985 19.72 L 86.793 19.72 L 86.793 5.942 L 89.985 5.942 Z M 99.975 5.623 C 101.504 5.623 102.738 6.103 103.676 7.035 C 104.588 7.968 105.071 9.327 105.071 11.112 L 105.071 19.72 L 101.879 19.72 L 101.879 11.805 C 101.879 10.633 101.611 9.78 101.129 9.194 C 100.619 8.608 99.922 8.314 99.01 8.314 C 98.098 8.314 97.347 8.634 96.784 9.22 C 96.221 9.833 95.953 10.713 95.953 11.832 L 95.953 19.72 L 92.761 19.72 L 92.761 5.942 L 95.684 5.942 L 95.684 7.861 C 96.569 6.369 97.991 5.623 99.975 5.623 Z M 88.402 0 C 88.939 0 89.422 0.186 89.797 0.559 C 90.173 0.933 90.36 1.386 90.36 1.919 C 90.36 2.452 90.173 2.905 89.797 3.278 C 89.422 3.651 88.939 3.837 88.402 3.837 C 87.813 3.837 87.356 3.651 86.981 3.278 C 86.605 2.905 86.418 2.451 86.418 1.919 C 86.418 1.386 86.605 0.933 86.981 0.559 C 87.356 0.186 87.813 0 88.402 0 Z" fill="#111111" height="19.7197816122965px" id="y11mCZ_xt" width="105.07083502752135px"/><path d="M 0 2.887 C 0 1.292 1.301 0 2.905 0 C 4.51 0 5.811 1.292 5.811 2.887 C 5.811 4.481 4.51 5.774 2.905 5.774 C 1.301 5.774 0 4.481 0 2.887 Z" fill="#F35500" height="5.77367320261439px" id="hYiOb6hjg" transform="translate(85.897 36.029)" width="5.810677685950395px"/></g><g d="M 13.6 0.632 C 12.973 0.015 12.027 -0.169 11.206 0.164 C 10.384 0.497 9.85 1.282 9.853 2.152 C 9.856 3.022 10.396 3.803 11.22 4.131 C 7.354 4.707 5.086 9.215 4.407 11.543 C 2.774 11.154 0.922 11.862 0 12.408 C 1.921 13.133 5.086 15.784 6.566 17.109 C 9.653 19.871 9.562 33.834 5.818 40.468 C 5.447 41.127 4.938 41.786 4.429 42.444 C 3.139 44.122 1.843 45.803 2.768 47.485 C 2.965 47.841 3.202 47.842 3.584 47.846 L 3.718 47.846 L 12.05 47.993 L 12.704 47.982 C 12.159 46.697 11.635 44.399 13.355 42.085 L 13.448 41.959 L 13.561 41.848 C 14.847 40.59 15.731 39.129 16.314 37.602 C 16.437 37.384 16.556 37.011 16.668 36.545 C 16.67 36.539 16.671 36.533 16.672 36.527 C 16.672 36.53 16.672 36.523 16.672 36.527 L 16.677 36.505 C 17.004 35.128 17.273 32.949 17.44 31.555 L 13.945 31.555 L 13.945 29.566 C 13.943 28.317 14.444 27.117 15.338 26.226 C 15.542 26.022 15.502 25.872 15.348 25.611 C 14.622 24.133 14.247 22.513 14.251 20.874 C 14.251 16.759 16.189 13.183 19.724 11.627 L 19.707 11.581 C 19.702 11.569 19.697 11.556 19.693 11.543 C 19.015 9.215 16.747 4.708 12.881 4.131 C 13.559 3.859 14.054 3.273 14.198 2.57 C 14.343 1.867 14.118 1.139 13.6 0.632 Z M 24.424 12.844 C 28.57 12.844 31.932 16.508 31.932 21.028 C 31.932 23.351 31.043 25.445 29.618 26.936 C 31.065 26.936 32.238 28.083 32.239 29.498 L 32.239 29.722 L 29.049 29.722 C 28.575 33.617 29.057 39.341 33.218 43.41 C 34.723 45.435 33.653 47.457 33.313 48 L 15.535 48 C 15.194 47.457 14.124 45.433 15.629 43.41 C 19.79 39.341 20.272 33.617 19.798 29.721 L 16.608 29.721 C 16.609 28.268 17.751 27.06 19.232 26.946 C 19.232 26.943 19.232 26.938 19.229 26.935 C 17.804 25.445 16.915 23.35 16.915 21.028 C 16.915 16.508 20.278 12.845 24.424 12.845 Z" fill="transparent" height="47.99999951873142px" id="PPazgQkzD" width="33.99999948775797px"><path d="M 13.6 0.632 C 12.973 0.015 12.027 -0.169 11.206 0.164 C 10.384 0.497 9.85 1.282 9.853 2.152 C 9.856 3.022 10.396 3.803 11.22 4.131 C 7.354 4.707 5.086 9.215 4.407 11.543 C 2.774 11.154 0.922 11.862 0 12.408 C 1.921 13.133 5.086 15.784 6.566 17.109 C 9.653 19.871 9.562 33.834 5.818 40.468 C 5.447 41.127 4.938 41.786 4.429 42.444 C 3.139 44.122 1.843 45.803 2.768 47.485 C 2.965 47.841 3.202 47.842 3.584 47.846 L 3.718 47.846 L 12.05 47.993 L 12.704 47.982 C 12.159 46.697 11.635 44.399 13.355 42.085 L 13.448 41.959 L 13.561 41.848 C 14.847 40.59 15.731 39.129 16.314 37.602 C 16.437 37.384 16.556 37.011 16.668 36.545 C 16.67 36.539 16.671 36.533 16.672 36.527 C 16.672 36.53 16.672 36.523 16.672 36.527 L 16.677 36.505 C 17.004 35.128 17.273 32.949 17.44 31.555 L 13.945 31.555 L 13.945 29.566 C 13.943 28.317 14.444 27.117 15.338 26.226 C 15.542 26.022 15.502 25.872 15.348 25.611 C 14.622 24.133 14.247 22.513 14.251 20.874 C 14.251 16.759 16.189 13.183 19.724 11.627 L 19.707 11.581 C 19.702 11.569 19.697 11.556 19.693 11.543 C 19.015 9.215 16.747 4.708 12.881 4.131 C 13.559 3.859 14.054 3.273 14.198 2.57 C 14.343 1.867 14.118 1.139 13.6 0.632 Z" fill="#111111" height="47.99295905846368px" id="m_ltelRf9" width="19.72418400107004px"/><path d="M 9.576 0 C 13.722 0 17.085 3.664 17.085 8.184 C 17.085 10.507 16.196 12.601 14.771 14.092 C 16.218 14.092 17.391 15.239 17.392 16.654 L 17.392 16.878 L 14.202 16.878 C 13.728 20.773 14.21 26.497 18.371 30.566 C 19.876 32.591 18.806 34.613 18.465 35.156 L 0.687 35.156 C 0.347 34.613 -0.723 32.59 0.782 30.566 C 4.943 26.497 5.425 20.773 4.951 16.877 L 1.761 16.877 C 1.762 15.424 2.904 14.217 4.384 14.102 C 4.384 14.099 4.384 14.095 4.382 14.091 C 2.957 12.601 2.068 10.506 2.068 8.184 C 2.068 3.664 5.43 0.001 9.576 0.001 Z" fill="#F35500" height="35.156219001153296px" id="KQwhZndgT" transform="translate(14.847 12.844)" width="19.152612173915188px"/></g></svg>